PathFileType	4	(X/Y/Z)	72_2_44_p0_0-511.trc
DataRate	CameraRate	NumFrames	NumMarkers	Units	OrigDataRate	OrigDataStartFrame	OrigNumFrames
50.0	50.0	5	27	m	50.0	384	512
Frame#	Time	RHip			RKnee			RAnkle			RBigToe			RSmallToe			RHeel			LHip			LKnee			LAnkle			LBigToe			LSmallToe			LHeel			Neck			Head			Nose			RShoulder			RElbow			RWrist			RThumb			RIndex			RPinky			LShoulder			LElbow			LWrist			LThumb			LIndex			LPinky			
		X1	Y1	Z1	X2	Y2	Z2	X3	Y3	Z3	X4	Y4	Z4	X5	Y5	Z5	X6	Y6	Z6	X7	Y7	Z7	X8	Y8	Z8	X9	Y9	Z9	X10	Y10	Z10	X11	Y11	Z11	X12	Y12	Z12	X13	Y13	Z13	X14	Y14	Z14	X15	Y15	Z15	X16	Y16	Z16	X17	Y17	Z17	X18	Y18	Z18	X19	Y19	Z19	X20	Y20	Z20	X21	Y21	Z21	X22	Y22	Z22	X23	Y23	Z23	X24	Y24	Z24	X25	Y25	Z25	X26	Y26	Z26	X27	Y27	Z27	
384	7.68	0.22097033855440937	0.43757786286403133	0.6278322998968766	0.25040046476159045	0.49738280327442635	1.0506818083665646	0.2514092224474292	0.6020655349131042	1.4760887928732551	0.19046904490000122	0.4005881559566574	1.4642077736199788	0.2695733069611783	0.4723478727829955	1.499113180084594	0.24627207397212617	0.6384251623010674	1.5173735653864124	0.014785121237717733	0.4978170934131008	0.6288361958807379	0.011217076325722582	0.5366284887832387	1.0464923951667426	-0.0035825991635173235	0.6243506024617148	1.4804738469975156	-0.027720619220388577	0.47676257500115776	1.4803105191558437	-0.06566807514595441	0.5067421106199177	1.4713231262515125	0.012498878144739288	0.6424069284271191	1.514317348423813	0.07693335379805652	0.4357355328269095	0.046986902822277084	-0.018786237082673695	0.4097131317627824	-0.21392607279241738	-0.009619835524938242	0.3234222910530888	-0.051871826521530946	0.27482308008287015	0.40051786012569107	0.09459708655267828	0.36725349047008693	0.44154493538385575	0.3473723850484107	0.3678860006675846	0.4088193448433125	0.5969529503255157	0.29277028552908374	0.3854334716236776	0.6823232972258015	0.302320783935556	0.3810367353866407	0.704188655116322	0.34212553736096984	0.43469886391345414	0.7330737172518302	-0.05015702885596907	0.5322681292473852	0.1324628692805169	-0.11288931582639768	0.594525123876182	0.3657445302576793	-0.2189383973559954	0.4436417190188818	0.5599872159339968	-0.24563452504167313	0.37122465456284875	0.6355615018621797	-0.2760197434627184	0.3460401470328068	0.6417267438244801	-0.24947653063828742	0.42275641431190597	0.6728525702074166
385	7.7	0.2271574704312884	0.4494828592300793	0.6355318208080423	0.24975854476721698	0.4995708429848968	1.0516831145445749	0.2467344975346022	0.588943781960302	1.478121473904832	0.19044253503013772	0.400275793888133	1.4642456302958031	0.26949753599018716	0.4721450891875988	1.499220339117003	0.24166185045040559	0.6276004731001512	1.5152393203314876	0.024561661211119534	0.5117086343195487	0.6375084953909811	0.0104236335713774	0.5364884539811661	1.050623999271728	-0.00817784939988396	0.6227137124318393	1.4795810492210388	-0.02912264416767291	0.4499262859441003	1.4639811648037195	-0.065651558152906	0.506618178252488	1.4714280130769852	0.007704381496134489	0.6418823056548781	1.514518302498041	0.09230526798212187	0.4361098837706737	0.044068977194725495	-0.012206800776013157	0.3984409268602327	-0.223899529526541	-0.0011669504592241406	0.33418980273473137	-0.05388538325800136	0.2793303512196151	0.40076535577747724	0.09451374316273854	0.37306899221201295	0.444808004984238	0.3520286291331934	0.37304122560355496	0.39452718022274147	0.5962760847336955	0.2936291445155391	0.37219153340292765	0.6851759814857116	0.30210941557944004	0.38109844315211994	0.7048854156110845	0.34156732231663645	0.43294344090837655	0.7414451515081589	-0.04646074113840015	0.5196428312644469	0.13026983991500904	-0.10519614313952899	0.5929505245878764	0.3655174479163639	-0.2032218674760577	0.455923897024724	0.5639981395450728	-0.22572337140507562	0.35043119949034196	0.6251654788411117	-0.26822246007133577	0.3458932270449954	0.6379803879305986	-0.23663233309999587	0.4154756577483312	0.66684007021722
386	7.72	0.23273669303216019	0.4604978057772136	0.6390431440215322	0.25036176442162955	0.4976054830501816	1.0509379302129738	0.2464490016181135	0.59043379234692	1.4741609065492751	0.19047863723822958	0.40007204969927745	1.4642300579794507	0.2639283981296363	0.46023961721303436	1.4914656900525411	0.2355527629052182	0.623999356867223	1.5080768091282646	0.0290487493534137	0.5128607951088989	0.6381693588962005	0.010484294659248973	0.5366857824427697	1.0506071345462493	-0.008233977594720247	0.6240992908722407	1.4755835917922755	-0.029012545861279937	0.44977317636988523	1.4638124670611943	-0.06545953271693011	0.5064424312175604	1.4712460797196474	0.006548306832026084	0.6404920005733653	1.5074981233843114	0.10544548069596572	0.44928552670993166	0.045697068690300935	0.008197227973131343	0.374965033734463	-0.22449121985696407	0.012377846752493014	0.32560235668537435	-0.054664402518599935	0.28620159277897433	0.3983566399126131	0.0941653361417187	0.3732780263799966	0.44389821966186876	0.35568016629012955	0.3737248522732253	0.3949864008114104	0.6007460507613014	0.29340869121122376	0.3714213664418523	0.6852006442214127	0.3018912194516126	0.3794241061776656	0.7080712020179633	0.3319047435010184	0.3985177257701553	0.7328420922028038	-0.03721491195833624	0.5332019689133023	0.12486667475538533	-0.08655022156940555	0.5541651680349664	0.35710531334009926	-0.19486335927215495	0.4787059600705191	0.5710031879918763	-0.20267220981568995	0.3269769159227749	0.6214424609891094	-0.24967771113226567	0.36893861989804455	0.6464325563157189	-0.22385000348324993	0.4299998076000299	0.6725787961612931
387	7.74	0.23295553948435885	0.45946569793882724	0.6427772535359525	0.25037359579970486	0.49755179678655265	1.0507264812908108	0.24644408591385392	0.5886703829930114	1.4779724061587707	0.1950762443493972	0.4002464479545257	1.46496453342674	0.2640584999774304	0.45868685152219585	1.4954546544609568	0.23696633337456485	0.6240352315081219	1.5169231127546312	0.029106263328088095	0.5126187231576227	0.6381614989928744	0.011441621514871388	0.5367561965779887	1.0468711794800678	-0.008175692849039882	0.624273867444521	1.475718520550671	-0.02566111684201509	0.43576318091021526	1.4553666487338337	-0.06523452065052296	0.506295494381314	1.471139455310618	0.0023925830821001698	0.6408191122790626	1.507384909906737	0.11509608860257624	0.46070080193942237	0.05026297532457647	0.018920269937824103	0.3652842624947324	-0.224939270064095	0.02414271951712826	0.33554894593273876	-0.05789665250354204	0.29046196780794925	0.3987078791445709	0.09436650687860293	0.37880526775233875	0.454200748425639	0.3656917550467492	0.37445262446973865	0.3803582056985985	0.604100767713549	0.29271580743586667	0.36960124283824647	0.6922200347498649	0.2975034801595195	0.3686308667028448	0.7119486666946558	0.3310409875603209	0.3864913541911987	0.7326118879360021	-0.03374833745224438	0.5201330386966	0.12666559008835038	-0.07022572506219074	0.5434133942159208	0.3550489460643741	-0.1676238502190692	0.4404383802423648	0.564133277146935	-0.1988493168212301	0.33778444204652086	0.6290924452575916	-0.22968141063095937	0.3717015266479185	0.6481396234329928	-0.21851807590427896	0.41688344543559525	0.6685675273197244
388	7.76	0.23807922202327314	0.4603204016859383	0.6391770489236461	0.2504405158973832	0.49803871940471167	1.050642905320219	0.24628347372668596	0.5887608454897321	1.478608147069678	0.19528145833406205	0.3983158824622349	1.4683235550338292	0.26405827944103094	0.4584332455802604	1.4954721072982247	0.23333264284195776	0.6232423376989126	1.5208640472504544	0.036911603025144006	0.5005939479197091	0.6305575378262119	0.011555018224860247	0.5382361691202182	1.0564811162650585	-0.008179724057060559	0.6245119377729639	1.4761018786893942	-0.016651409168172017	0.44901971392825796	1.463897381141342	-0.064974650072183	0.5067247456737564	1.471546020473496	0.0020546509806159325	0.6423910590012913	1.5040957055134485	0.1228208620274974	0.4582880270572142	0.0498559579799255	0.03945255452072646	0.3866385062062133	-0.22454735333283607	0.02558838445087806	0.3365526833520249	-0.06813543435012898	0.291215461994927	0.39946956178190846	0.09802342779811012	0.37983993288745205	0.4390053817630644	0.3662168558295044	0.3694680444550038	0.3552162011231131	0.6043128216392468	0.29277664283777816	0.36936201907152216	0.7005449933894067	0.29843116265508496	0.3551718034450695	0.71156275746097	0.32743171543874583	0.3619033247372862	0.7279639236295318	-0.026537040085171226	0.5179881853020347	0.12243827050758355	-0.058023922742514396	0.5441864780084992	0.35534185696180304	-0.14403417437254334	0.42936524666876225	0.5657819097268613	-0.186287254346548	0.33908592038003416	0.6385413965521584	-0.20319513596280156	0.33757967159426805	0.6405503198314226	-0.20942713659827947	0.40705273383998625	0.6734203230058837
